<mxfile host="app.diagrams.net" modified="2024-01-24T20:05:37.479Z" agent="Mozilla/5.0 (Windows NT 10.0; Win64; x64) AppleWebKit/537.36 (KHTML, like Gecko) Chrome/120.0.0.0 Safari/537.36" etag="6W66ipmntwJW_rImHNM8" version="22.1.22" type="device">
  <diagram id="dijq7EySqOm7LpBwnqDr" name="Page-1">
    <mxGraphModel dx="882" dy="578" grid="1" gridSize="10" guides="1" tooltips="1" connect="1" arrows="1" fold="1" page="1" pageScale="1" pageWidth="850" pageHeight="1100" math="0" shadow="0">
      <root>
        <mxCell id="0" />
        <mxCell id="1" parent="0" />
        <mxCell id="4vW8A9jBXDTGD8f5KINq-7" style="edgeStyle=orthogonalEdgeStyle;rounded=0;orthogonalLoop=1;jettySize=auto;html=1;exitX=0.5;exitY=1;exitDx=0;exitDy=0;entryX=0.5;entryY=0;entryDx=0;entryDy=0;" edge="1" parent="1" source="4vW8A9jBXDTGD8f5KINq-1" target="4vW8A9jBXDTGD8f5KINq-2">
          <mxGeometry relative="1" as="geometry" />
        </mxCell>
        <mxCell id="4vW8A9jBXDTGD8f5KINq-1" value="User A" style="rounded=1;whiteSpace=wrap;html=1;" vertex="1" parent="1">
          <mxGeometry x="80" y="80" width="120" height="60" as="geometry" />
        </mxCell>
        <mxCell id="4vW8A9jBXDTGD8f5KINq-16" style="edgeStyle=orthogonalEdgeStyle;rounded=0;orthogonalLoop=1;jettySize=auto;html=1;exitX=0.5;exitY=1;exitDx=0;exitDy=0;entryX=0.5;entryY=0;entryDx=0;entryDy=0;" edge="1" parent="1" source="4vW8A9jBXDTGD8f5KINq-2" target="4vW8A9jBXDTGD8f5KINq-3">
          <mxGeometry relative="1" as="geometry" />
        </mxCell>
        <mxCell id="4vW8A9jBXDTGD8f5KINq-23" style="edgeStyle=orthogonalEdgeStyle;rounded=0;orthogonalLoop=1;jettySize=auto;html=1;exitX=0.75;exitY=1;exitDx=0;exitDy=0;entryX=0.25;entryY=0;entryDx=0;entryDy=0;" edge="1" parent="1" source="4vW8A9jBXDTGD8f5KINq-2" target="4vW8A9jBXDTGD8f5KINq-4">
          <mxGeometry relative="1" as="geometry" />
        </mxCell>
        <mxCell id="4vW8A9jBXDTGD8f5KINq-2" value="Chat server 1" style="rounded=1;whiteSpace=wrap;html=1;" vertex="1" parent="1">
          <mxGeometry x="80" y="200" width="120" height="60" as="geometry" />
        </mxCell>
        <mxCell id="4vW8A9jBXDTGD8f5KINq-27" style="edgeStyle=orthogonalEdgeStyle;rounded=0;orthogonalLoop=1;jettySize=auto;html=1;exitX=0.5;exitY=1;exitDx=0;exitDy=0;entryX=0.5;entryY=0;entryDx=0;entryDy=0;" edge="1" parent="1" source="4vW8A9jBXDTGD8f5KINq-3" target="4vW8A9jBXDTGD8f5KINq-5">
          <mxGeometry relative="1" as="geometry" />
        </mxCell>
        <mxCell id="4vW8A9jBXDTGD8f5KINq-3" value="User B message queue" style="rounded=1;whiteSpace=wrap;html=1;" vertex="1" parent="1">
          <mxGeometry x="80" y="320" width="120" height="60" as="geometry" />
        </mxCell>
        <mxCell id="4vW8A9jBXDTGD8f5KINq-26" style="edgeStyle=orthogonalEdgeStyle;rounded=0;orthogonalLoop=1;jettySize=auto;html=1;exitX=0.5;exitY=1;exitDx=0;exitDy=0;entryX=0.5;entryY=0;entryDx=0;entryDy=0;" edge="1" parent="1" source="4vW8A9jBXDTGD8f5KINq-4" target="4vW8A9jBXDTGD8f5KINq-6">
          <mxGeometry relative="1" as="geometry" />
        </mxCell>
        <mxCell id="4vW8A9jBXDTGD8f5KINq-4" value="User C message queue" style="rounded=1;whiteSpace=wrap;html=1;" vertex="1" parent="1">
          <mxGeometry x="280" y="320" width="120" height="60" as="geometry" />
        </mxCell>
        <mxCell id="4vW8A9jBXDTGD8f5KINq-5" value="User B" style="rounded=1;whiteSpace=wrap;html=1;" vertex="1" parent="1">
          <mxGeometry x="80" y="440" width="120" height="60" as="geometry" />
        </mxCell>
        <mxCell id="4vW8A9jBXDTGD8f5KINq-6" value="User C" style="rounded=1;whiteSpace=wrap;html=1;" vertex="1" parent="1">
          <mxGeometry x="280" y="440" width="120" height="60" as="geometry" />
        </mxCell>
        <mxCell id="4vW8A9jBXDTGD8f5KINq-15" style="edgeStyle=orthogonalEdgeStyle;rounded=0;orthogonalLoop=1;jettySize=auto;html=1;exitX=0.5;exitY=1;exitDx=0;exitDy=0;entryX=0.5;entryY=0;entryDx=0;entryDy=0;" edge="1" parent="1" source="4vW8A9jBXDTGD8f5KINq-13" target="4vW8A9jBXDTGD8f5KINq-14">
          <mxGeometry relative="1" as="geometry" />
        </mxCell>
        <mxCell id="4vW8A9jBXDTGD8f5KINq-13" value="User D" style="rounded=1;whiteSpace=wrap;html=1;" vertex="1" parent="1">
          <mxGeometry x="280" y="80" width="120" height="60" as="geometry" />
        </mxCell>
        <mxCell id="4vW8A9jBXDTGD8f5KINq-17" style="edgeStyle=orthogonalEdgeStyle;rounded=0;orthogonalLoop=1;jettySize=auto;html=1;exitX=0.5;exitY=1;exitDx=0;exitDy=0;entryX=0.5;entryY=0;entryDx=0;entryDy=0;" edge="1" parent="1" source="4vW8A9jBXDTGD8f5KINq-14" target="4vW8A9jBXDTGD8f5KINq-4">
          <mxGeometry relative="1" as="geometry" />
        </mxCell>
        <mxCell id="4vW8A9jBXDTGD8f5KINq-25" style="edgeStyle=orthogonalEdgeStyle;rounded=0;orthogonalLoop=1;jettySize=auto;html=1;exitX=0;exitY=0.5;exitDx=0;exitDy=0;entryX=1;entryY=0.5;entryDx=0;entryDy=0;" edge="1" parent="1" source="4vW8A9jBXDTGD8f5KINq-14" target="4vW8A9jBXDTGD8f5KINq-3">
          <mxGeometry relative="1" as="geometry" />
        </mxCell>
        <mxCell id="4vW8A9jBXDTGD8f5KINq-14" value="Chat server 2" style="rounded=1;whiteSpace=wrap;html=1;" vertex="1" parent="1">
          <mxGeometry x="280" y="200" width="120" height="60" as="geometry" />
        </mxCell>
      </root>
    </mxGraphModel>
  </diagram>
</mxfile>
